<svg xmlns="http://www.w3.org/2000/svg" viewBox="0 0 92.91 92.91" fill="currentColor">
    <path d="M51.6 92.51v-1.63c.01-5.24.03-10.48.02-15.72 0-2.5-.94-3.53-3.47-3.52-3.63.01-7.19-.44-10.64-1.56-10.43-3.37-15.76-10.83-17.06-21.46-.19-1.57-.28-3.17-.32-4.75-.05-2.2.86-3.27 3.04-3.63.6-.1 1.21-.08 1.82-.08l33.56-.01c1.86 0 2.47-.81 1.47-2.38-2.69-4.23-6.38-7.18-11.55-7.44-4.53-.22-9.08-.04-13.62-.04-3.03 0-3.8-.75-3.83-3.81-.03-3.42-.02-6.84-.02-10.25v-1.94c-7.96.63-19.36 16.97-20.46 28.2a36.48 36.48 0 0030.58 39.65v10.4a44.47 44.47 0 01-24.01-10.1C7.3 74.38 1.53 63.99.26 51.34-2.64 22.7 19.45 2.22 41.2.36v16.55c.01 2.6.56 3 3.21 3.22 3.02.25 6.07.53 9 1.24 10.29 2.5 17.18 10.4 18.45 20.9a49 49 0 01.32 5.72c0 1.88-1.06 2.91-2.94 3.06-.7.06-1.4.03-2.1.03-10.87 0-21.73.04-32.59-.05-2.1-.02-2.85 1.22-1.68 3.06 2.53 3.94 6.13 6.38 10.77 6.77 4.18.36 8.4.23 12.61.32.8.01 1.6-.03 2.4.05 2.34.25 3.43 1.4 3.45 3.76.04 3.98.01 7.96.02 11.94 0 .53.09 1.07.15 1.8a31.76 31.76 0 008.28-5.53c6.46-5.9 10.48-13.2 11.59-21.86 1.51-11.88-2.06-22.19-10.56-30.67-5.18-5.17-11.47-8.3-18.63-9.73-.42-.08-1.08-.48-1.1-.75-.07-3.26-.04-6.52-.04-9.8 20.01 1.8 39.98 18.95 41.05 43.93a46.21 46.21 0 01-41.25 48.2z"></path>
</svg>
